<svg width="109" height="18" viewBox="0 0 109 18" fill="none" xmlns="http://www.w3.org/2000/svg">
<path d="M3.95477 17.6932H0.000221983L6.02579 0.238691H10.7815L16.7985 17.6932H12.844L8.47181 4.22733H8.33545L3.95477 17.6932ZM3.70761 10.8324H13.0485V13.7131H3.70761V10.8324ZM18.8994 17.6932V0.238691H22.5897V14.6506H30.0727V17.6932H18.8994ZM32.5166 17.6932V0.238691H36.2069V14.6506H43.6899V17.6932H32.5166ZM60.8546 6.34949H57.1217C57.0535 5.86653 56.9143 5.43755 56.7041 5.06255C56.4938 4.68187 56.2239 4.35801 55.8944 4.09096C55.5649 3.82392 55.1842 3.61937 54.7524 3.47733C54.3262 3.33528 53.8631 3.26426 53.3631 3.26426C52.4597 3.26426 51.6728 3.48869 51.0024 3.93755C50.3319 4.38074 49.812 5.02846 49.4427 5.88074C49.0734 6.72733 48.8887 7.75574 48.8887 8.96596C48.8887 10.2103 49.0734 11.2557 49.4427 12.1023C49.8177 12.9489 50.3404 13.5881 51.0109 14.0199C51.6813 14.4518 52.4569 14.6677 53.3376 14.6677C53.8319 14.6677 54.2893 14.6023 54.7097 14.4716C55.1359 14.341 55.5137 14.1506 55.8433 13.9006C56.1728 13.6449 56.4455 13.3353 56.6614 12.9716C56.883 12.608 57.0364 12.1932 57.1217 11.7273L60.8546 11.7444C60.758 12.5455 60.5166 13.3182 60.1302 14.0626C59.7495 14.8012 59.2353 15.4631 58.5876 16.0484C57.9455 16.6279 57.1785 17.0881 56.2864 17.429C55.4001 17.7643 54.3972 17.9319 53.2779 17.9319C51.7211 17.9319 50.3291 17.5796 49.1018 16.8751C47.8802 16.1705 46.9143 15.1506 46.2041 13.8154C45.4995 12.4802 45.1472 10.8637 45.1472 8.96596C45.1472 7.06256 45.5052 5.44324 46.2211 4.10801C46.937 2.77278 47.9086 1.75574 49.1359 1.05687C50.3631 0.352328 51.7438 5.48363e-05 53.2779 5.48363e-05C54.2893 5.48363e-05 55.2268 0.1421 56.0904 0.426191C56.9597 0.710282 57.7296 1.12505 58.4001 1.67051C59.0705 2.21028 59.616 2.87221 60.0364 3.6563C60.4626 4.4404 60.7353 5.33812 60.8546 6.34949ZM66.1813 17.6932H62.2268L68.2524 0.238691H73.008L79.0251 17.6932H75.0705L70.6984 4.22733H70.562L66.1813 17.6932ZM65.9342 10.8324H75.2751V13.7131H65.9342V10.8324ZM81.1259 17.6932V0.238691H88.0123C89.3305 0.238691 90.4555 0.474487 91.3873 0.946078C92.3248 1.41199 93.0379 2.07392 93.5265 2.93187C94.0208 3.78415 94.268 4.78699 94.268 5.9404C94.268 7.09949 94.018 8.09665 93.518 8.93187C93.018 9.76142 92.2935 10.3978 91.3447 10.841C90.4015 11.2841 89.2595 11.5057 87.9185 11.5057H83.3078V8.53983H87.322C88.0265 8.53983 88.6117 8.44324 89.0776 8.25006C89.5435 8.05687 89.8901 7.7671 90.1174 7.38074C90.3504 6.99437 90.4668 6.51426 90.4668 5.9404C90.4668 5.36085 90.3504 4.87221 90.1174 4.47449C89.8901 4.07676 89.5407 3.77562 89.0691 3.57108C88.6032 3.36085 88.0151 3.25574 87.3049 3.25574H84.8163V17.6932H81.1259ZM90.5521 9.75006L94.8901 17.6932H90.8163L86.572 9.75006H90.5521ZM96.8759 17.6932V0.238691H108.637V3.2813H100.566V7.4404H108.032V10.483H100.566V14.6506H108.671V17.6932H96.8759Z" fill="white"/>
</svg>
