<svg width="246" height="580" viewBox="0 0 246 580" fill="none" xmlns="http://www.w3.org/2000/svg">
<g clip-path="url(#clip0_349_40)">
<path d="M243.6 324.4C242.9 323.1 242.3 321.6 241.5 320.1C240.3 317.4 239.1 314.7 237.6 312.5C235 308.5 231 305.1 227.5 302.1C225.8 300.6 225.3 299.4 225 297.9C223.8 291.2 223 283.3 222.2 274.9C221.6 268.2 220.9 261.2 219.9 253.8C218.9 246.5 217 241.1 215.2 235.8C212.9 229.4 210.8 223.3 210.7 214.5C210.6 210.1 210.5 200.9 210.5 196.5C210.5 190.2 209.9 185.6 208.8 178.8C207.8 172.5 205.8 158.8 205.8 158.7C205.6 156.8 205.4 154.6 205.3 152.2C205 147 204.7 141 203 136.9C200.7 131.3 196.9 123.9 191.6 120.2C185.5 115.9 177.2 113.7 172.7 112.9C171.3 112.6 169.9 112.1 168.6 111.4C162 107.9 152.5 104.5 146.8 102.5C145.8 102.2 145 101.9 144.3 101.6C143.1 101.2 142.3 100 142.3 98.7V85.1C142.3 84.5 142.6 83.9 143 83.6C149.1 79 153.4 71.7 154.6 64C157 47.7001 156.5 36.5001 156.5 36.4001C156.5 14.9001 140.3 1.80005 123.9 1.30005H123.8H123.5C123.4 1.30005 123.3 1.30005 123.1 1.30005H122.6H122.3C122.2 1.30005 122.1 1.30005 121.9 1.30005H121.4C121.3 1.30005 121.2 1.30005 121.2 1.30005C104.9 1.80005 88.7001 14.9001 88.7001 36.4001C88.7001 36.5001 88.6001 47.9001 90.6001 63.9001C91.5001 71.5001 95.9001 78.8 102.2 83.6C102.7 84 103 84.5 103 85.1V98.7C103 100 102.2 101.2 101 101.6C100.3 101.9 99.4001 102.1 98.5001 102.5C92.8001 104.5 83.3001 107.8 76.7001 111.4C75.4001 112.1 74.0001 112.6 72.6001 112.9C68.2001 113.8 59.8001 115.9 53.7001 120.2C48.5001 123.9 44.6001 131.3 42.3001 136.9C40.6001 141 40.3001 146.9 40.0001 152.2C39.9001 154.6 39.7001 156.9 39.5001 158.7C39.5001 158.8 37.5001 172.5 36.5001 178.8C35.4001 185.5 34.8001 190.1 34.8001 196.5C34.8001 200.9 34.6001 210.1 34.6001 214.5C34.5001 223.2 32.3001 229.3 30.1001 235.8C28.3001 241.1 26.3001 246.5 25.4001 253.8C24.4001 261.2 23.7001 268.2 23.1001 274.9C22.3001 283.3 21.5001 291.2 20.3001 297.9C20.0001 299.4 19.5001 300.6 17.8001 302.1C14.3001 305.1 10.3001 308.5 7.70008 312.5C6.30008 314.7 5.00008 317.4 3.80008 320.1C3.10008 321.7 2.40008 323.1 1.70008 324.4C1.20008 325.7 0.80008 326.7 1.40008 327.5C1.90008 328.3 2.80008 328.4 3.70008 328.4C7.30008 328.5 9.50008 325 10.4001 323.6C10.5001 323.5 10.6001 323.3 10.6001 323.3C10.7001 323.2 10.9001 322.9 11.1001 322.4C12.3001 320.5 13.1001 319.2 13.7001 318.3C13.2001 320.2 12.1001 323.6 10.0001 329.2C9.10008 332.3 7.00008 338 5.90008 341C5.50008 342.1 5.20008 342.8 5.20008 343C4.90008 343.9 4.90008 345.4 5.50008 346.5C5.90008 347.2 6.40008 347.6 7.10008 347.8C8.40008 348.1 10.2001 348 11.7001 345.4C12.4001 344.2 14.9001 337.5 17.4001 330.7C17.8001 329.7 18.1001 328.9 18.3001 328.3C17.3001 331.6 12.9001 346.6 12.8001 348.6C12.7001 349.7 12.4001 352.5 15.2001 353.1C17.2001 353.5 18.9001 352.5 19.5001 350.6C19.7001 349.8 21.2001 344.7 22.6001 339.8C23.7001 336 24.7001 332.3 25.2001 330.6H25.4001C24.6001 334 22.3001 344.9 21.9001 347.7C21.6001 349.7 22.7001 351.5 24.4001 351.8C26.2001 352.1 28.0001 350.8 28.6001 348.7C30.3001 342.9 31.8001 334.6 32.4001 331H32.6001C32.5001 332.2 32.2001 334.1 31.9001 336C31.4001 339.1 30.9001 342.7 30.9001 344.7C30.9001 347.7 32.4001 348.5 33.7001 348.6C35.5001 348.7 37.0001 347.3 37.3001 345.2C37.5001 343.9 40.1001 328.8 41.4001 323.9C41.9001 322 42.4001 319.1 42.5001 317.3C42.7001 314.6 42.8001 312.4 42.7001 310.4C42.6001 308 42.4001 303.4 43.0001 300.7C44.3001 294.9 47.2001 287.9 50.2001 280.5C54.9001 269 59.8001 257.1 60.4001 246.4L60.5001 244.7C60.9001 237.2 61.6001 221.7 66.3001 200.7C68.3001 191.6 68.6001 185.7 68.8001 182.5C68.8001 181.5 68.9001 180.5 69.0001 180H69.1001C69.3001 180.4 69.7001 181.2 70.1001 182.5C73.1001 192.1 77.9001 210.9 78.2001 216C78.5001 221 78.6001 227.8 78.8001 234.4C78.9001 237.9 79.0001 241.3 79.0001 244.4C79.4001 257.2 76.7001 273.3 75.1001 282.9C74.8001 284.8 74.5001 286.3 74.3001 287.6C72.0001 303.1 69.3001 326.8 72.5001 353.6C75.2001 387.4 80.4001 404.7 83.5001 415C84.8001 419.3 85.7001 422.3 85.8001 424.7C86.0001 428.1 86.0001 430.8 85.7001 432.6C85.5001 433.6 85.3001 435.1 85.0001 436.8C83.9001 443.3 82.3001 453.2 82.2001 457.3C81.9001 471.5 84.1001 481.4 86.7001 493C87.8001 497.9 88.9001 502.9 90.0001 508.7C90.1001 509.5 90.6001 511.1 91.2001 513.4C92.6001 518.5 95.0001 527.1 96.2001 534.5C96.7001 538.9 97.0001 542.7 96.9001 545.8C96.8001 548.5 96.7001 550.5 95.7001 552.4C94.8001 554 92.4001 555.4 89.7001 557C87.0001 558.6 83.9001 560.4 81.1001 563C80.3001 563.8 79.9001 565.1 80.1001 566.5C80.4001 568.4 81.8001 570 83.8001 570.9H83.9001C87.8001 572.1 91.2001 573.1 94.2001 574.1C105 577.4 109.9 579 113.2 578.6C117.1 578.1 121 576.8 122.4 571.4C123.9 576.9 127.9 578.2 131.5 578.6C131.8 578.6 132.2 578.7 132.6 578.7C135.9 578.7 140.9 577.2 150.5 574.2C153.4 573.3 156.8 572.2 160.8 571H160.9C162.9 570.1 164.3 568.5 164.6 566.6C164.8 565.2 164.5 563.8 163.6 563.1C160.8 560.5 157.7 558.7 155 557.1C152.2 555.5 149.8 554.1 149 552.5C148 550.6 147.9 548.5 147.8 545.9C147.7 542.8 148 538.9 148.5 534.6C149.7 527.1 152.1 518.5 153.5 513.4C154.1 511.1 154.6 509.4 154.7 508.7C155.7 502.9 156.9 497.9 158 493C160.6 481.4 162.8 471.5 162.5 457.3C162.4 453.2 160.8 443.3 159.7 436.8C159.4 435.1 159.2 433.6 159 432.6C158.7 430.8 158.7 428.2 158.9 424.7C159 422.4 160 419.3 161.2 415C164.3 404.7 169.5 387.4 172.2 353.6C175.5 326.8 172.8 303.1 170.4 287.6C170.2 286.4 170 284.8 169.6 282.9C168 273.3 165.3 257.1 165.7 244.4C165.8 241.3 165.9 237.9 165.9 234.4C166 227.8 166.2 221 166.5 216C166.8 211 173.1 186.7 174.9 182.6C175 182.5 175.1 182.3 175.2 182.2C175.6 185.9 176.6 192.2 178.5 200.8C183.2 221.8 183.9 237.3 184.3 244.8L184.4 246.5C184.9 257.2 189.8 269.1 194.6 280.6C197.6 288 200.5 295 201.8 300.8C202.4 303.5 202.2 308.1 202.1 310.5C202 312.5 202.1 314.8 202.3 317.4C202.4 319.2 203 322.1 203.4 324C204.7 328.9 207.3 344.1 207.5 345.3C207.8 347.4 209.3 348.8 211.1 348.7C212.4 348.6 213.9 347.9 213.9 344.8C213.9 342.8 213.4 339.2 212.9 336.1C212.6 334.2 212.4 332.4 212.2 331.1H212.4C213 334.8 214.6 343 216.2 348.8C216.8 350.9 218.6 352.2 220.4 351.9C222.1 351.6 223.2 349.8 222.9 347.8C222.5 344.9 220.1 333.8 219.4 330.7H219.6C220.1 332.3 221.1 336 222.2 339.7C223.6 344.7 225.1 349.9 225.4 350.7C226 352.6 227.7 353.6 229.7 353.2C232.5 352.6 232.2 349.8 232.1 348.7C231.9 346.7 227.5 331.7 226.5 328.4C226.7 329 227 329.8 227.4 330.8C229.9 337.6 232.4 344.3 233.1 345.5C234.6 348.1 236.4 348.3 237.7 347.9C238.4 347.7 239 347.3 239.4 346.6C240.1 345.4 240 344 239.7 343L239 341.2C237.9 338.2 235.7 332.4 234.5 329.2C232.4 323.7 231.3 320.3 230.8 318.3C231.4 319.1 232.3 320.4 233.4 322.4C233.7 322.8 233.8 323.1 233.9 323.3C234 323.4 234 323.5 234.1 323.6C235 325 237.2 328.4 240.7 328.4H240.8C241.7 328.4 242.6 328.3 243.1 327.5C244.5 326.7 244.1 325.7 243.6 324.4ZM122.7 560.7C122.5 559.6 122.2 558.5 121.9 557.4C120.4 552.4 119.6 549.2 119.4 543.7C119.4 542 119.5 540.1 119.5 537.7C119.6 533.2 119.8 527.1 119.7 517.8C119.9 512.9 120.1 507.2 120.3 500.5C121.3 489.4 122.5 469.5 122.1 459.8C121.8 452 121.3 445.3 120.4 439.3C119.3 431.7 119 423.9 119.5 416.1C119.8 411.9 119.8 407.8 119.9 405.1C119.9 403.5 120 402.3 120 401.9C122.6 380.4 122.2 354.6 121.9 331.9C121.8 324.2 121.7 316.9 121.7 310.1C121.7 309.2 121.9 308.3 122.2 307.3C122.4 306.6 122.5 305.9 122.6 305.2H122.7C122.8 305.9 123 306.6 123.1 307.2C123.3 308.2 123.6 309.1 123.6 309.9C123.6 316.8 123.5 324.1 123.4 331.9C123.1 354.5 122.7 380.2 125.3 401.9C125.3 404.7 125.3 409.9 125.7 415.2C126.2 423.4 126 431.6 124.8 439.5C124 445.5 123.4 452.1 123.2 459.8C122.9 469.5 124.1 489.4 125 500.4C125.2 507.1 125.4 512.8 125.6 517.7C125.5 525.9 125.6 531.8 125.6 536C125.6 539.1 125.7 541.5 125.6 543.5C125.4 548.7 125 551.8 123.4 557.4C123.2 558.6 122.9 559.7 122.7 560.7Z" fill="#F2F3F4"/>
<path d="M244.7 323.9L244.6 323.7C244 322.5 243.3 321.1 242.6 319.5C241.4 316.8 240.1 314 238.6 311.8C235.9 307.7 231.8 304.2 228.3 301.2C226.9 300 226.5 299 226.2 297.7C225 291 224.2 283.1 223.4 274.8C222.8 268 222.1 261.1 221.1 253.6C220.1 246.2 218.2 240.7 216.3 235.4C214.1 229.1 212 223.1 211.9 214.5C211.9 211.2 211.7 201.1 211.7 196.5C211.7 190.1 211.1 185.4 210 178.6C209 172.3 207 158.7 207 158.5C206.8 156.7 206.6 154.5 206.5 152.1C206.2 146.8 205.9 140.7 204.1 136.4C201.7 130.7 197.8 123.1 192.3 119.2C186 114.7 177.5 112.6 173 111.7C171.7 111.4 170.4 111 169.2 110.3C163.9 107.4 156.6 104.7 151 102.7C150.1 102.3 148.9 101.9 147.7 101.5C147.5 101.4 147.3 101.4 147.2 101.3C146.2 101 145.4 100.7 144.7 100.4C144 100.2 143.6 99.5 143.6 98.7V85.6C143.6 85 143.9 84.5 144.3 84.2C150.4 79.4 154.7 72 155.9 64.1C158.4 47.7 157.8 36.9 157.8 36.3C157.8 14 141 0.500024 124.1 -0.0999756C124 -0.0999756 123.9 -0.0999756 123.7 -0.0999756H123.5H123.4C123.3 -0.0999756 123.2 -0.0999756 123.1 -0.0999756C123 -0.0999756 122.9 -0.0999756 122.8 -0.0999756H122.7H122.6H122.3H122.2C122.1 -0.0999756 122 -0.0999756 121.9 -0.0999756C121.8 -0.0999756 121.7 -0.0999756 121.6 -0.0999756H121.5H121.4C121.3 -0.0999756 121.1 -0.0999756 121 -0.0999756C104.1 0.400024 87.3 14 87.3 36.3C87.3 36.4 87.2 47.9 89.2 64C90.2 71.9 94.5 79.3 100.8 84.2C101.2 84.5 101.5 85.1 101.5 85.6V98.7C101.5 99.5 101 100.2 100.4 100.4C99.7 100.7 98.9 100.9 97.9 101.3C97.7 101.4 97.5 101.4 97.4 101.5C96.2 101.9 95.1 102.3 94.1 102.7C88.5 104.7 81.3 107.4 75.9 110.3C74.7 110.9 73.4 111.4 72.1 111.7C67.6 112.6 59.1 114.8 52.8 119.2C47.3 123.1 43.3 130.7 41 136.4C39.2 140.7 38.9 146.8 38.6 152.1C38.5 154.5 38.3 156.7 38.1 158.5C38.1 158.6 36.1 172.3 35.1 178.5C34 185.3 33.4 189.9 33.4 196.4C33.4 201 33.2 211.1 33.2 214.4C33.1 222.9 31 228.9 28.8 235.3C26.9 240.6 25 246.2 24 253.5C23 260.9 22.3 267.9 21.7 274.7C20.9 283 20.1 290.9 18.9 297.6C18.7 298.9 18.3 299.8 16.8 301.1C13.2 304.2 9.20005 307.6 6.50005 311.7C5.00005 313.9 3.80005 316.7 2.50005 319.4C1.80005 320.9 1.10005 322.4 0.500046 323.6V323.7V323.8C4.62532e-05 325 -0.699954 326.6 0.300046 328.1C1.20005 329.5 3.00005 329.6 3.60005 329.6H3.70005C6.30005 329.6 8.30005 328.1 9.60005 326.6C9.40005 327.2 9.10005 327.9 8.80005 328.6C7.60005 331.7 5.50005 337.4 4.40005 340.4C4.00005 341.5 3.70005 342.2 3.70005 342.4V342.5V342.6C3.40005 343.8 3.30005 345.6 4.10005 347.1C4.60005 348.1 5.50005 348.7 6.50005 349C6.90005 349.1 7.40005 349.2 7.80005 349.2C8.80005 349.2 10.1 348.9 11.4 347.6C11.3 348 11.3 348.3 11.2 348.5C10.8 352.6 12.8 353.9 14.6 354.3C15 354.4 15.4 354.4 15.8 354.4C18 354.4 19.8 353.1 20.4 350.9C20.4 350.8 20.5 350.5 20.6 350.2C21.1 351.6 22.3 352.7 23.9 353C24.2 353.1 24.4 353.1 24.7 353.1C26.9 353.1 28.9 351.5 29.6 349C29.7 348.5 29.9 348 30 347.4C30.9 349.3 32.6 349.6 33.5 349.7C33.6 349.7 33.7 349.7 33.8 349.7C36.2 349.7 38.1 347.8 38.5 345.2C38.7 344 41.3 328.9 42.6 324C43.1 322 43.6 319 43.8 317.2C44 314.5 44.1 312.1 44 310.1C43.9 307.9 43.7 303.3 44.3 300.7C45.6 295 48.4 288.1 51.4 280.7C55.9 269.6 61.1 257.1 61.6 246.2C61.6 245.7 61.7 245.1 61.7 244.5C62.1 237.1 62.8 221.6 67.4 200.7C68.9 194.1 69.4 189.2 69.7 185.7C72.7 195.8 76.6 211.4 76.8 215.8C77.1 220.8 77.2 227.6 77.4 234.1C77.5 237.7 77.6 241 77.7 244.1C78.1 256.7 75.4 272.8 73.8 282.4C73.5 284.3 73.2 285.8 73 287.1C70.7 302.6 67.9 326.4 71.2 353.4C73.9 387.3 79.1 404.7 82.3 415C83.6 419.2 84.5 422.2 84.6 424.4C84.8 427.8 84.8 430.3 84.5 432C84.3 433 84.1 434.5 83.8 436.2C82.7 442.8 81.1 452.7 81 456.9C80.7 471.2 82.9 481.3 85.5 492.9C86.6 497.8 87.7 502.8 88.7 508.6C88.8 509.4 89.3 511 90 513.5C91.4 518.6 93.7 527.1 94.9 534.5C95.4 538.8 95.7 542.6 95.6 545.6C95.5 548.1 95.4 549.9 94.5 551.6C93.8 552.9 91.5 554.3 89 555.7C86.2 557.3 83.1 559.1 80.2 561.9C79.1 563 78.6 564.8 78.9 566.6C79.3 568.9 80.9 570.9 83.4 572L83.5 572.1H83.6C87.5 573.3 90.9 574.3 93.9 575.3C103.7 578.4 108.7 579.9 112.2 579.9C112.6 579.9 113 579.9 113.4 579.8C116.7 579.4 120.4 578.4 122.5 574.7C125.1 579.1 129.5 579.6 131.4 579.8C131.8 579.8 132.2 579.9 132.6 579.9C136.1 579.9 141 578.4 150.9 575.3C153.8 574.4 157.2 573.3 161.2 572.1H161.3L161.4 572C163.8 570.9 165.5 569 165.9 566.6C166.2 564.8 165.7 563 164.6 561.9C161.7 559.2 158.6 557.3 155.8 555.7C153.3 554.3 151 552.9 150.3 551.6C149.4 549.9 149.3 548.1 149.2 545.5C149.1 542.5 149.4 538.7 149.9 534.4C151.1 527 153.4 518.5 154.8 513.4C155.5 511 155.9 509.4 156.1 508.5C157.1 502.7 158.3 497.7 159.3 492.8C161.9 481.2 164.2 471.1 163.8 456.8C163.7 452.6 162.1 442.7 161 436.1C160.7 434.4 160.5 433 160.3 431.9C160 430.2 160 427.6 160.2 424.3C160.3 422.1 161.2 419.1 162.5 414.9C165.6 404.5 170.8 387.2 173.6 353.3C176.9 326.3 174.2 302.5 171.8 287C171.6 285.8 171.4 284.2 171 282.3C169.4 272.7 166.7 256.6 167.1 244C167.2 240.9 167.3 237.5 167.4 234C167.5 227.4 167.7 220.6 168 215.7C168.2 211.5 172.4 195.1 174.8 186.9C175.3 190.5 176.2 195.1 177.4 200.6C182 221.5 182.8 237 183.1 244.4C183.1 245 183.2 245.6 183.2 246.1C183.8 257 188.9 269.5 193.4 280.6C196.4 287.9 199.3 294.9 200.5 300.6C201.1 303.2 200.9 307.8 200.8 310C200.7 312 200.8 314.4 201 317.1C201.2 319 201.7 322 202.2 323.9C203.4 328.8 206.1 343.9 206.3 345.1C206.7 347.8 208.6 349.6 211 349.6C211.1 349.6 211.2 349.6 211.3 349.6C212.2 349.5 213.9 349.2 214.8 347.3C214.9 347.8 215.1 348.4 215.2 348.9C215.9 351.3 217.8 353 220.1 353C220.4 353 220.6 353 220.9 352.9C222.5 352.6 223.6 351.5 224.2 350.1C224.3 350.4 224.4 350.7 224.4 350.8C225.1 353 226.9 354.3 229 354.3C229.4 354.3 229.8 354.3 230.2 354.2C232 353.8 234 352.5 233.6 348.4C233.6 348.2 233.5 347.9 233.4 347.5C234.6 348.8 236 349.1 237 349.1C237.4 349.1 237.9 349 238.3 348.9C239.3 348.6 240.2 348 240.7 347C241.5 345.5 241.5 343.7 241.1 342.5V342.4V342.3C241 342.2 240.8 341.4 240.4 340.3C239.3 337.3 237.2 331.6 236 328.5C235.7 327.8 235.5 327.1 235.2 326.5C236.5 328 238.5 329.5 241.1 329.5H241.2C241.9 329.5 243.6 329.4 244.5 328C245.9 326.7 245.2 325.1 244.7 323.9ZM122.7 555.7C121.5 551.5 120.8 548.5 120.6 543.6C120.6 541.9 120.7 540.1 120.7 537.7C120.8 533.2 121 527.1 121 517.8C121.2 512.9 121.4 507.2 121.6 500.6C122 496.2 122.4 490.5 122.7 484.6C123 490.5 123.5 496.2 123.8 500.6C124 507.3 124.2 512.9 124.4 517.8C124.3 526 124.4 531.8 124.4 536.1C124.4 539.2 124.5 541.6 124.4 543.6C124.3 548.3 124 551.2 122.7 555.7ZM121.3 402.2C121.9 396.8 122.4 391.2 122.7 385.3C123 391 123.5 396.6 124.1 402C124.1 404.9 124.1 409.8 124.5 415C125 423.4 124.8 431.6 123.7 439.3C123.3 442 123 444.8 122.7 447.8C122.4 444.7 122.1 441.8 121.7 439.1C120.6 431.6 120.3 423.9 120.8 416.2C121.1 412 121.1 407.9 121.2 405.2C121.2 403.9 121.2 402.5 121.3 402.2ZM241.6 327.4C238.2 327.4 236.2 323.7 235.5 322.7C235 322 231.7 316.2 230.4 315.8C230.4 315.8 230.4 315.8 230.3 315.8C229 315.8 233.3 327.3 234.1 329.5C235.7 333.7 239 342.7 239.2 343.3C239.6 344.6 239.3 346.5 238 346.9C237.7 347 237.5 347 237.3 347C236.3 347 235.4 346.3 234.6 345C233.7 343.5 228.9 330.2 227.9 327.6C227.8 327.4 227.6 327.3 227.4 327.3C227.3 327.3 227.3 327.3 227.2 327.3L226.2 327.6C226 327.7 225.8 327.9 225.9 328.2C226.7 330.9 231.4 346.9 231.6 348.8C231.8 350.9 231.4 351.9 230 352.2C229.8 352.2 229.5 352.3 229.3 352.3C228.2 352.3 227.2 351.7 226.8 350.4C226.4 349 221.9 333.1 221 330C220.9 329.8 220.7 329.6 220.4 329.6H220.3L219.2 329.8C218.9 329.9 218.7 330.1 218.8 330.4C219.4 332.9 222 345 222.4 347.9C222.6 349.3 222 350.6 220.7 350.8C220.6 350.8 220.4 350.8 220.3 350.8C219.1 350.8 218.1 349.8 217.6 348.4C215.7 341.8 214 332.2 213.7 330.4C213.7 330.2 213.5 330 213.3 330L212.1 329.9H212C211.7 329.9 211.5 330.2 211.5 330.5C211.7 333.4 213.2 341.3 213.2 344.7C213.2 346.6 212.6 347.4 211.4 347.5H211.3C210.1 347.5 209.1 346.5 208.9 345C208.7 343.7 206.1 328.6 204.8 323.5C204.4 321.8 203.9 318.9 203.7 317.1C203.5 314.1 203.4 312 203.5 310.3C203.6 307.6 203.8 303.1 203.2 300.3C199.9 285.6 186.8 263.7 185.9 246.2C185.5 239.2 185.1 223.1 180 200.4C178.2 192.5 177.3 186.6 176.9 182.8C177.6 181 178.5 178.5 179.2 176C179.5 174.8 179.9 173.5 180.1 172.3C180.3 171.1 180.5 170 180.6 169C180.8 167.1 180.8 165.7 180.8 165.7C180.8 165.3 180.5 165 180.2 165C179.8 164.9 179.4 165.2 179.3 165.6C179.3 165.6 179.2 165.9 179.2 166.4C179.1 166.9 179 167.7 178.7 168.6C178.5 169.5 178.2 170.6 177.9 171.7C177.6 172.8 177.2 174 176.8 175.2C176.4 176.4 176 177.6 175.6 178.7C175.2 179.8 174.9 180.8 174.5 181.7C174.2 182.6 173.9 183.3 173.8 183.8C173.6 184.3 173.5 184.6 173.5 184.6C173.5 184.7 173.4 184.9 173.4 185C170.9 192.9 166.3 211.2 166 215.7C165.6 223.4 165.4 235.2 165.2 244.1C164.7 259.5 168.7 280 169.8 287.5C172.7 306.8 174.5 328.8 171.6 353.2C167.7 401.4 158.7 416.1 158.2 424.3C158 427.4 158 430.3 158.3 432.4C159.1 437.4 161.7 451.9 161.8 457C162.2 477 157.6 488.6 154 508.2C153.6 510.6 149.5 523.3 147.8 534.1C147.3 537.8 147 542 147.1 545.6C147.2 548.2 147.3 550.5 148.4 552.7C150.3 556.3 157.5 558.2 163.2 563.6C164.4 564.8 164.3 568.3 160.7 569.9C144 575 136.9 577.6 132.8 577.6C132.5 577.6 132.1 577.6 131.8 577.5C127.5 577 122.9 575.3 123 565.6C123.1 562.9 123.5 560.3 124.3 557.7C125.9 552.2 126.3 549 126.6 543.6C126.7 538.6 126.4 531.9 126.6 517.7C126.4 512.8 126.2 507.1 126 500.4C125.1 490 123.8 469.6 124.2 459.8C124.5 450.9 125.2 444.4 125.8 439.6C127 431.5 127.2 423.3 126.7 415.1C126.3 409.4 126.3 404.3 126.3 401.8C122.9 373.7 124.5 339.1 124.5 312.1C124.5 312.2 124.6 312.2 124.6 312.3C124.9 312.7 125.3 313.1 125.7 313.5C126.1 313.9 126.6 314.3 127.1 314.7C127.6 315.1 128.2 315.4 128.7 315.8C129.3 316.1 129.9 316.5 130.5 316.8C131.8 317.4 133.2 318 134.6 318.4C136.1 318.9 137.6 319.2 139.2 319.5C140 319.6 140.8 319.8 141.6 319.8L142.8 319.9L143.4 320H144C145.6 320.1 147.3 320.1 148.9 319.9C150.5 319.7 152.1 319.5 153.6 319.1C155.1 318.7 156.5 318.2 157.8 317.6C159.1 317 160.3 316.3 161.3 315.5C163.3 314 164.7 312.4 165.5 311.2C165.9 310.6 166.2 310.1 166.4 309.8C166.6 309.5 166.7 309.3 166.7 309.3C166.9 309 166.8 308.7 166.6 308.4C166.3 308.1 165.9 308.2 165.6 308.5C165.6 308.5 165.5 308.6 165.2 308.9C164.9 309.2 164.6 309.6 164.1 310.1C163.7 310.6 163.1 311.1 162.4 311.7C161.7 312.3 160.9 312.9 159.9 313.5C159 314.1 157.9 314.7 156.7 315.2C155.5 315.7 154.2 316.2 152.9 316.5C151.5 316.9 150.1 317.1 148.6 317.2C147.1 317.3 145.6 317.4 144.1 317.3H143.5H142.9L141.7 317.2C140.9 317.1 140.2 317 139.5 316.9C138 316.7 136.6 316.4 135.2 316C133.8 315.6 132.5 315.2 131.4 314.6C130.8 314.4 130.3 314 129.7 313.8C129.2 313.5 128.7 313.2 128.2 312.9C127.3 312.3 126.5 311.6 126 311C125.7 310.7 125.5 310.4 125.2 310.1C125 309.8 124.8 309.5 124.7 309.2C124.4 308.7 124.2 308.2 124.2 307.9C124.1 307.6 124.1 307.4 124.1 307.4C124.1 307.4 123.8 304.9 123.7 303.4C123.6 300.8 123.5 297.3 123.4 293.7C123.2 286.7 122.9 279.7 122.9 279.7C122.9 279.3 122.6 279 122.2 279C121.8 279 121.5 279.3 121.5 279.7C121.5 279.7 121.3 286.7 121 293.7C120.9 297.2 120.8 300.7 120.7 303.4C120.7 305 120.4 307.6 120.3 307.9C120.2 308.2 120 308.7 119.8 309.2C119.6 309.5 119.5 309.8 119.3 310.1C119.1 310.4 118.8 310.7 118.5 311C117.9 311.7 117.2 312.3 116.3 312.9C115.9 313.2 115.3 313.5 114.8 313.8C114.3 314.1 113.7 314.4 113.1 314.6C111.9 315.1 110.6 315.6 109.3 316C107.9 316.4 106.5 316.7 105 316.9C104.3 317 103.5 317.1 102.8 317.2L101.6 317.3H101H100.4C98.9 317.4 97.4 317.3 95.9 317.2C94.4 317.1 93 316.9 91.6 316.5C90.2 316.2 89 315.7 87.8 315.2C86.6 314.7 85.5 314.1 84.6 313.5C83.6 312.9 82.8 312.3 82.1 311.7C81.4 311.1 80.8 310.6 80.4 310.1C79.9 309.7 79.6 309.2 79.3 308.9C79.1 308.6 78.9 308.5 78.9 308.5C78.7 308.3 78.3 308.2 78 308.4C77.7 308.6 77.6 309 77.8 309.3C77.8 309.3 77.9 309.5 78.1 309.8C78.3 310.1 78.6 310.6 79 311.2C79.8 312.4 81.2 314 83.2 315.5C84.2 316.3 85.4 317 86.7 317.6C88 318.2 89.4 318.7 90.9 319.1C92.4 319.5 94 319.8 95.6 319.9C97.2 320 98.9 320.1 100.5 320H101.1L101.7 319.9L102.9 319.8C103.7 319.7 104.5 319.6 105.3 319.5C106.9 319.2 108.4 318.9 109.9 318.4C111.4 317.9 112.8 317.4 114 316.8C114.6 316.5 115.2 316.1 115.8 315.8C116.4 315.4 116.9 315.1 117.4 314.7C117.9 314.3 118.4 313.9 118.8 313.5C119.2 313.1 119.6 312.7 119.9 312.3C119.9 312.2 120 312.2 120 312.1C120 339.1 121.6 373.9 118.3 401.8C118.2 402.9 118.2 409.2 117.8 416C117.3 423.8 117.6 431.6 118.7 439.4C119.4 444.2 120.1 450.8 120.4 459.8C120.7 469.6 119.5 489.9 118.6 500.4C118.4 507.1 118.2 512.8 118 517.7C118.1 531.8 117.6 538.6 117.6 543.6C117.8 549 118.5 552.2 120.2 557.6C121 560.2 121.5 562.9 121.6 565.6C121.9 575.7 117.1 577.1 112.8 577.6C112.5 577.6 112.2 577.7 111.8 577.7C107.7 577.7 100.7 575.1 83.9 570C80.3 568.4 80.2 564.9 81.4 563.7C87.1 558.4 94.3 556.4 96.2 552.8C97.4 550.6 97.5 548.3 97.5 545.7C97.6 542.1 97.2 537.9 96.8 534.2C95.1 523.4 91 510.7 90.6 508.3C87.1 488.7 82.4 477 82.8 457.1C82.9 452 85.5 437.5 86.3 432.5C86.6 430.4 86.6 427.5 86.4 424.4C85.9 416.2 76.9 401.5 73 353.3C70 328.8 71.9 306.8 74.8 287.6C75.9 280.1 79.9 259.6 79.4 244.2C79.1 235.3 79 223.4 78.6 215.8C78.3 210.4 73.3 191.4 70.4 182C70.1 181.1 69.8 180.3 69.5 179.7C69.4 179.3 69.1 178.7 69 178.4C68.6 177.4 68.3 176.3 67.9 175.1C67.5 173.9 67.2 172.7 66.8 171.6C66.5 170.5 66.2 169.4 66 168.5C65.8 167.6 65.6 166.8 65.5 166.3C65.4 165.8 65.4 165.5 65.4 165.5C65.3 165.1 65 164.9 64.7 164.9C64.3 164.9 63.9 165.2 63.9 165.7C63.9 165.7 63.9 167 64.1 169C64.2 170 64.4 171.1 64.6 172.3C64.8 173.5 65.2 174.7 65.5 176C66 177.9 66.6 179.7 67.1 181.2C66.9 184.1 66.9 190.2 64.6 200.4C59.5 223.2 59.1 239.2 58.7 246.2C57.8 263.7 44.6 285.5 41.4 300.3C40.8 303.1 41 307.5 41.1 310.3C41.2 312 41.2 314.1 40.9 317.1C40.8 318.9 40.2 321.8 39.8 323.5C38.5 328.5 35.9 343.7 35.7 345C35.5 346.5 34.5 347.5 33.3 347.5H33.2C31.9 347.4 31.3 346.6 31.4 344.7C31.4 341.3 32.9 333.4 33.1 330.5C33.1 330.2 32.9 329.9 32.6 329.9H32.5L31.3 330C31.1 330 30.9 330.2 30.9 330.4C30.6 332.2 28.9 341.8 27 348.4C26.6 349.8 25.5 350.8 24.3 350.8C24.2 350.8 24 350.8 23.9 350.8C22.6 350.6 22 349.3 22.2 347.9C22.6 345 25.3 332.9 25.8 330.4C25.9 330.1 25.7 329.8 25.4 329.8L24.3 329.6H24.2C23.9 329.6 23.7 329.8 23.6 330C22.7 333 18.2 349 17.8 350.4C17.4 351.7 16.5 352.3 15.3 352.3C15.1 352.3 14.9 352.3 14.6 352.2C13.2 351.9 12.8 350.9 13 348.8C13.2 346.9 17.8 330.9 18.7 328.2C18.8 328 18.6 327.7 18.4 327.6L17.4 327.3C17.3 327.3 17.3 327.3 17.2 327.3C17 327.3 16.8 327.4 16.7 327.6C15.7 330.2 10.8 343.5 10 345C9.20005 346.4 8.30005 347 7.30005 347C7.10005 347 6.80005 347 6.60005 346.9C5.20005 346.5 5.00005 344.6 5.40005 343.3C5.60005 342.8 8.90005 333.8 10.5 329.5C11.3 327.3 15.6 315.8 14.3 315.8C14.3 315.8 14.3 315.8 14.2 315.8C12.9 316.1 9.60005 322 9.10005 322.7C8.40005 323.7 6.40005 327.4 3.10005 327.4H3.00005C1.10005 327.4 1.10005 326.7 2.00005 324.8C3.80005 321.5 5.60005 316.4 7.80005 313.1C10.3 309.4 13.9 306.2 17.7 302.9C19.6 301.3 20.2 299.9 20.5 298.1C22.7 286 23.3 270.8 25.6 253.9C27.7 237.9 34.6 230.6 34.8 214.5C34.9 210.1 35 200.9 35 196.5C35 190 35.6 185.4 36.7 179C37.7 172.7 39.7 158.9 39.7 158.9C40.5 152.8 40.1 143.1 42.4 137.3C44.7 131.7 48.5 124.6 53.4 121.1C59.4 116.8 67.9 114.7 71.9 113.9C73.4 113.6 74.9 113 76.3 112.3C83.8 108.3 95.3 104.5 100.2 102.7C101.3 102.3 102.3 102 103.2 101.8C104.5 101.4 105.4 101.2 105.4 101.2C105.7 101.1 105.9 100.8 105.9 100.5C105.9 100.1 105.6 99.8 105.2 99.9C105.2 99.9 103.2 99.8 103.2 99.3C103.2 95.6 103.2 87.6 103.2 84.7C103.2 84 102.9 83.4 102.3 83C96.8 79 91.9 72.2 90.8 63.8C88.8 47.7 88.9 36.4 88.9 36.4C88.9 15.3 104.7 2.70002 120.5 2.30002H120.6H120.7C120.7 2.30002 120.7 2.30002 120.8 2.30002C120.9 2.30002 121 2.30002 121.1 2.30002C121.2 2.30002 121.3 2.30002 121.4 2.30002H121.5C121.6 2.30002 121.6 2.30002 121.8 2.30002H121.9C121.9 2.30002 121.9 2.30002 122 2.30002C122.1 2.30002 122.2 2.30002 122.3 2.30002C122.4 2.30002 122.5 2.30002 122.6 2.30002H122.7C122.8 2.30002 122.8 2.30002 122.9 2.30002H123C138.8 2.70002 154.6 15.3 154.6 36.4C154.6 36.4 155.2 47.4 152.7 63.8C151.5 72.1 146.7 79 141.2 83C140.7 83.4 140.3 84 140.3 84.7C140.3 87.6 140.3 95.6 140.3 99.3C140.3 99.8 138.3 99.9 138.3 99.9C138 99.9 137.7 100.1 137.6 100.4C137.5 100.8 137.7 101.1 138.1 101.2C138.1 101.2 139 101.4 140.3 101.8C141.2 102 142.2 102.4 143.3 102.7C148.2 104.5 159.7 108.3 167.2 112.3C168.6 113 170.1 113.6 171.6 113.9C175.6 114.7 184 116.8 190.1 121.1C195.1 124.6 198.8 131.8 201.1 137.3C203.5 143.1 203.1 152.8 203.8 158.9C203.8 158.9 205.7 172.7 206.8 179C207.8 185.4 208.5 190 208.5 196.5C208.5 200.9 208.7 210.1 208.7 214.5C208.9 230.5 215.8 237.8 217.9 253.9C220.1 270.7 220.8 286 223 298.1C223.3 299.9 224 301.3 225.8 302.9C229.6 306.2 233.2 309.3 235.7 313.1C237.9 316.5 239.8 321.5 241.5 324.8C243.4 326.8 243.5 327.4 241.6 327.4Z" fill="#8AA0A8"/>
<path opacity="0.4" d="M122.8 195.5C122.1 195.5 122.1 196 122.1 197.9C121.8 207.5 121 231.3 121.9 245.5C122 247.2 122.1 247.9 122.8 247.9C123.5 247.9 123.6 247.2 123.7 245.5C124.1 239 124.5 224.1 123.6 197.9C123.5 196 123.5 195.5 122.8 195.5Z" fill="#8AA0A8"/>
<path opacity="0.4" d="M111.5 175.4C111.5 179.5 104.7 185.9 101.8 188.4C101.6 188.6 101.8 189 102.1 188.9C104.5 187.9 109.2 185.3 112.9 180.1C116 175.7 114.5 158.6 114.5 155.7C114.1 140.9 112.5 146.3 112.5 155.2C112.4 164.3 111.5 175.4 111.5 175.4Z" fill="#8AA0A8"/>
<path opacity="0.4" d="M134.6 175.4C134.6 175.4 133.6 164.2 133.6 154.9C133.6 146.2 131.9 141 131.6 155.6C131.5 158.5 130 175.6 133.2 180C136.9 185.2 141.6 187.7 144 188.8C144.3 188.9 144.5 188.5 144.3 188.3C141.4 185.9 134.6 179.6 134.6 175.4Z" fill="#8AA0A8"/>
<path opacity="0.4" d="M150.5 424.6L149.5 424.1C146.9 422.8 145.2 422 141.5 422C139.3 422.1 137.3 423.5 136.3 424.3C136.1 424.4 135.6 424.8 135.9 425.3C136.2 425.8 136.9 425.5 137.4 425.3C139.1 424.6 144.6 424.4 148.3 425.7C148.8 425.9 149.6 426.1 150.2 426.1C150.6 426.1 151 426 151.1 425.7C151.6 425.1 150.8 424.7 150.5 424.6Z" fill="#8AA0A8"/>
<path opacity="0.4" d="M95.1001 426.2C95.7001 426.2 96.5001 426 97.0001 425.8C100.7 424.5 106.2 424.7 107.9 425.4C108.4 425.6 109.1 425.9 109.4 425.4C109.7 424.9 109.2 424.5 109 424.4C108 423.6 106 422.2 103.8 422.1C100.2 422.1 98.5001 422.9 95.9001 424.2L94.9001 424.7C94.6001 424.8 93.8001 425.2 94.1001 425.8C94.3001 426 94.6001 426.2 95.1001 426.2Z" fill="#8AA0A8"/>
<path opacity="0.4" d="M55.0001 229.1C51.4001 230.9 46.6001 230 45.2001 228.7C44.6001 228.1 44.4001 228.2 44.7001 228.8C45.4001 230.2 46.8001 232.3 48.5001 232.6C51.9001 232.9 53.4001 231.5 56.3001 229.4C57.6001 228.5 56.4001 228.3 55.0001 229.1Z" fill="#8AA0A8"/>
<path opacity="0.4" d="M200.3 228.6C198.9 230 194.1 230.8 190.5 229C189.1 228.3 187.9 228.5 189.1 229.3C192 231.4 193.5 232.8 196.9 232.5C198.6 232.2 200 230.1 200.7 228.7C201.1 228.1 200.9 228.1 200.3 228.6Z" fill="#8AA0A8"/>
</g>
<defs>
<clipPath id="clip0_349_40">
<rect width="245.5" height="580" fill="white"/>
</clipPath>
</defs>
</svg>
