<svg width="246" height="579" viewBox="0 0 246 579" fill="none" xmlns="http://www.w3.org/2000/svg">
<path d="M243.6 324.4C242.9 323.1 242.3 321.6 241.5 320.1C240.3 317.4 239.1 314.7 237.6 312.5C235 308.5 231 305.1 227.5 302.1C225.8 300.6 225.3 299.4 225 297.9C223.8 291.2 223 283.3 222.2 274.9C221.6 268.2 220.9 261.2 219.9 253.8C218.9 246.5 217 241.1 215.2 235.8C212.9 229.4 210.8 223.3 210.7 214.5C210.6 210.1 210.5 200.9 210.5 196.5C210.5 190.2 209.9 185.6 208.8 178.8C207.8 172.5 205.8 158.8 205.8 158.7C205.6 156.8 205.4 154.6 205.3 152.2C205 147 204.7 141 203 136.9C200.7 131.3 196.9 123.9 191.6 120.2C185.5 115.9 177.2 113.7 172.7 112.9C171.3 112.6 169.9 112.1 168.6 111.4C162 107.9 152.5 104.5 146.8 102.5C145.8 102.2 145 101.9 144.3 101.6C143.1 101.2 142.3 100 142.3 98.7V84.1C148.8 79.5 153.4 72 154.6 63.9C157 47.6 156.4 36.4 156.4 36.3C156.4 14.8 140.2 1.70001 123.9 1.20001H121.4C121.3 1.20001 121.2 1.20001 121.2 1.20001C104.9 1.70001 88.7001 14.8 88.7001 36.3C88.7001 36.4 88.5001 47.8 90.5001 63.8C91.5001 71.8 96.1001 79.3 102.8 84V98.6C102.8 99.9 102 101.1 100.8 101.5C100.1 101.8 99.2001 102.1 98.3001 102.4C92.6001 104.4 83.1001 107.7 76.5001 111.3C75.2001 112 73.8001 112.5 72.4001 112.8C68.0001 113.7 59.6001 115.8 53.5001 120.1C48.3001 123.8 44.4001 131.2 42.1001 136.8C40.4001 140.9 40.1001 146.8 39.8001 152.1C39.7001 154.5 39.5001 156.8 39.3001 158.6C39.3001 158.7 37.3001 172.4 36.3001 178.7C35.2001 185.4 34.6001 190 34.6001 196.4C34.6001 200.8 34.4001 210 34.4001 214.4C34.3001 223.1 32.1001 229.2 29.9001 235.7C28.1001 241 26.1001 246.4 25.2001 253.7C24.2001 261.1 23.6001 268.1 22.9001 274.8C22.1001 283.2 21.3001 291.1 20.1001 297.8C19.8001 299.3 19.3001 300.5 17.6001 302C14.1001 305 10.1001 308.4 7.50013 312.4C6.10013 314.6 4.80013 317.3 3.60013 320C2.90013 321.6 2.20013 323 1.50013 324.3C1.00013 325.6 0.600129 326.6 1.20013 327.4C1.70013 328.2 2.60013 328.3 3.50013 328.3C7.10013 328.4 9.30013 324.9 10.2001 323.5C10.3001 323.4 10.4001 323.2 10.4001 323.2C10.5001 323.1 10.7001 322.8 10.9001 322.3C12.1001 320.4 12.9001 319.1 13.5001 318.2C13.0001 320.1 11.9001 323.5 9.80013 329.1C9.10013 332.3 7.00013 338 5.90013 341C5.50013 342.1 5.20013 342.8 5.20013 343C4.90013 343.9 4.90013 345.4 5.50013 346.5C5.90013 347.2 6.40013 347.6 7.10013 347.8C8.40013 348.1 10.2001 348 11.7001 345.4C12.4001 344.2 14.9001 337.5 17.4001 330.7C17.8001 329.7 18.1001 328.9 18.3001 328.3C17.3001 331.6 12.9001 346.6 12.7001 348.6C12.6001 349.7 12.3001 352.5 15.1001 353.1C17.1001 353.5 18.8001 352.5 19.4001 350.6C19.6001 349.8 21.1001 344.7 22.5001 339.7C23.6001 335.9 24.6001 332.2 25.1001 330.6H25.3001C24.5001 334 22.2001 344.9 21.8001 347.7C21.5001 349.7 22.6001 351.5 24.3001 351.8C26.1001 352.1 27.9001 350.8 28.5001 348.7C30.2001 342.9 31.7001 334.6 32.3001 331H32.5001C32.4001 332.2 32.1001 334.1 31.8001 336C31.3001 339.1 30.8001 342.7 30.8001 344.7C30.8001 347.7 32.3001 348.5 33.6001 348.6C35.4001 348.7 36.9001 347.3 37.2001 345.2C37.4001 343.9 40.0001 328.8 41.3001 323.9C41.8001 322 42.3001 319.1 42.4001 317.3C42.6001 314.6 42.7001 312.4 42.6001 310.4C42.5001 308 42.3001 303.4 42.9001 300.7C44.2001 294.9 47.1001 287.9 50.1001 280.5C54.8001 269 59.7001 257.1 60.3001 246.4L60.4001 244.7C60.8001 237.2 61.5001 221.7 66.2001 200.7C68.2001 191.8 68.6001 185 68.9001 180.9C68.9001 180.3 69.0001 179.8 69.0001 179.3C69.5001 180.2 70.1001 180.6 70.7001 181.1C71.3001 181.5 71.6001 181.7 71.6001 182.8C71.6001 187.7 73.7001 196.4 75.6001 204C76.8001 209.1 78.0001 213.9 78.1001 216C78.4001 221 78.5001 227.8 78.7001 234.4C78.8001 237.9 78.9001 241.3 79.0001 244.4C79.4001 257.2 76.7001 273.3 75.1001 282.9C74.8001 284.8 74.5001 286.3 74.3001 287.6C72.0001 303.1 69.3001 326.8 72.5001 353.6C75.2001 387.4 80.4001 404.7 83.5001 415C84.8001 419.3 85.7001 422.3 85.8001 424.7C86.0001 428.1 86.0001 430.8 85.7001 432.6C85.5001 433.6 85.3001 435.1 85.0001 436.8C83.9001 443.3 82.3001 453.2 82.2001 457.3C81.9001 471.5 84.1001 481.4 86.7001 493C87.8001 497.9 88.9001 502.9 90.0001 508.7C90.1001 509.5 90.6001 511.1 91.2001 513.4C93.6001 521.9 99.1001 541.9 96.1001 547.8C93.1001 553.8 89.7001 557.9 87.1001 561.1C83.9001 564.9 81.6001 567.7 81.8001 571.3C81.9001 574.1 86.8001 575.5 99.9001 576.6C101.7 576.7 103.5 576.8 105.2 576.8C107 576.8 108.7 576.9 110.2 577H110.6C113.6 577.3 117 577.6 119 576.7C120.1 576.3 121.3 575.8 122.1 574.3L122.2 574.1C122.3 573.8 122.3 573.5 122.4 573.3C123.1 575.5 124.5 576.1 125.8 576.7L126 576.8C126.9 577.2 128.2 577.3 129.5 577.3C131 577.3 132.6 577.1 134.2 577H134.7C136.2 576.9 137.9 576.8 139.7 576.8C141.4 576.8 143.2 576.7 145 576.6C158.1 575.6 163 574.2 163.1 571.3C163.2 567.7 160.9 564.9 157.8 561.1C155.1 557.8 151.8 553.8 148.8 547.8C145.8 541.9 151.4 521.9 153.7 513.4C154.3 511.1 154.8 509.4 154.9 508.7C155.9 502.9 157.1 497.9 158.2 493C160.8 481.4 163 471.5 162.7 457.3C162.6 453.2 161 443.3 159.9 436.8C159.6 435.1 159.4 433.6 159.2 432.6C158.9 430.8 158.9 428.2 159.1 424.7C159.2 422.4 160.2 419.3 161.4 415C164.5 404.7 169.7 387.4 172.4 353.6C175.7 326.8 173 303.1 170.6 287.6C170.4 286.4 170.2 284.8 169.8 283C168.2 273.4 165.5 257.2 165.9 244.5C166 241.4 166.1 238 166.1 234.5C166.2 227.9 166.4 221.1 166.7 216.1C166.8 213.9 168 209 169.3 203.8C171.1 196.4 173.2 188 173.3 183.3C174.4 181.8 174.8 180.8 175.2 179.8C175.4 179.4 175.5 178.9 175.8 178.4C175.9 179.2 175.9 180.2 176 181.1C176.3 185.2 176.8 192 178.7 200.9C183.4 221.9 184.1 237.4 184.5 244.9L184.6 246.6C185.1 257.3 190 269.2 194.8 280.7C197.8 288.1 200.7 295.1 202 300.9C202.6 303.6 202.4 308.2 202.3 310.6C202.2 312.6 202.3 314.9 202.5 317.5C202.6 319.3 203.2 322.2 203.6 324.1C204.9 329 207.5 344.2 207.7 345.4C208 347.5 209.5 348.9 211.3 348.8C212.6 348.7 214.1 348 214.1 344.9C214.1 342.9 213.6 339.3 213.1 336.2C212.8 334.3 212.6 332.5 212.4 331.2H212.6C213.2 334.9 214.8 343.1 216.4 348.9C217 351 218.8 352.3 220.6 352C222.3 351.7 223.4 349.9 223.1 347.9C222.7 345.1 220.3 334.2 219.6 330.8H219.8C220.3 332.4 221.3 336.2 222.4 340C223.8 345 225.3 350.1 225.5 350.8C226.1 352.7 227.8 353.7 229.8 353.3C232.6 352.7 232.3 349.9 232.2 348.8C232 346.8 227.6 331.8 226.7 328.5C226.9 329.1 227.2 329.9 227.6 330.9C230.1 337.7 232.7 344.4 233.3 345.6C234.8 348.2 236.6 348.4 237.9 348C238.6 347.8 239.2 347.4 239.5 346.7C240.2 345.5 240.1 344.1 239.8 343.1C239.7 343 239.5 342.2 239.1 341.1C238 338.1 235.9 332.4 234.7 329.3C232.6 323.8 231.5 320.4 231 318.4C231.6 319.2 232.5 320.5 233.6 322.5C233.9 322.9 234 323.2 234.1 323.4C234.2 323.5 234.2 323.6 234.3 323.7C235.2 325.2 237.4 328.6 241 328.5C241.9 328.5 242.8 328.4 243.3 327.6C244.5 326.7 244.1 325.7 243.6 324.4ZM122.6 564.3C122.4 560.7 122.1 555.4 121.5 552.7C120.8 549.6 120.8 546.5 120.8 543.6C120.8 542.1 120.8 540.6 120.7 539.1C120.6 537.3 120.5 535.7 120.4 534.1C120 528.1 119.7 523.3 119.7 515.8C119.7 510 119.9 505.4 120.2 501.1C121.2 490.3 122.4 469.7 122.1 459.9C121.8 450.6 121.1 442.8 119.9 435.9C119 430.6 118.8 425.2 119.3 419.6C119.8 414.2 119.9 408.6 119.9 405.2C119.9 403.6 120 402.4 120 402C122.6 380.5 122.2 354.7 121.9 332C121.8 322.4 121.7 313.4 121.8 305.2H123.6C123.7 313.4 123.6 322.4 123.4 332C123.1 354.6 122.7 380.3 125.3 402C125.3 405.1 125.3 412.2 126 419.2C126.5 424.9 126.3 430.5 125.4 435.9C124.2 442.8 123.5 450.6 123.2 459.8C122.9 469.6 124.1 490.1 125.1 500.9C125.5 505.2 125.7 510 125.7 515.5C125.7 524.5 125.3 529.4 124.9 534.1C124.8 535.7 124.6 537.4 124.5 539.2C124.4 540.6 124.4 541.9 124.4 543.3C124.4 546.3 124.4 549.4 123.6 553C123.1 555.3 122.8 560.3 122.6 564.3Z" fill="#F2F3F4"/>
<path d="M244.7 323.8C244 322.5 243.4 321.1 242.7 319.5C241.5 316.8 240.2 314 238.7 311.8C236 307.7 231.9 304.2 228.4 301.2C227 300 226.6 299 226.3 297.7C225.1 291 224.3 283.1 223.5 274.8C222.9 268 222.2 261.1 221.2 253.6C220.2 246.2 218.3 240.7 216.4 235.4C214.2 229.1 212.1 223.1 212 214.5C212 211.2 211.8 201.1 211.8 196.5C211.8 190.1 211.2 185.4 210.1 178.6C209.1 172.3 207.1 158.7 207.1 158.5C206.9 156.7 206.7 154.5 206.6 152.1C206.3 146.8 206 140.7 204.2 136.4C201.8 130.7 197.9 123.1 192.4 119.2C186.1 114.7 177.6 112.6 173.1 111.7C171.8 111.4 170.5 111 169.3 110.3C162.6 106.7 153.1 103.4 147.3 101.3C146.3 101 145.5 100.7 144.8 100.4C144.1 100.2 143.7 99.5 143.7 98.7V84.7C150.2 79.9 154.8 72.3 156 64.1C158.5 47.7 157.9 36.9 157.9 36.3C157.9 14 141.1 0.500024 124.2 -0.0999756C124.1 -0.0999756 124 -0.0999756 123.8 -0.0999756H123.7H123.6C123.5 -0.0999756 123.4 -0.0999756 123.3 -0.0999756C123.2 -0.0999756 123 -0.0999756 122.9 -0.0999756H122.7H122.4C122.3 -0.0999756 122.1 -0.0999756 122 -0.0999756C121.9 -0.0999756 121.7 -0.0999756 121.6 -0.0999756H121.4C121.3 -0.0999756 121.1 -0.0999756 121 -0.0999756C104.1 0.400024 87.3 14 87.3 36.3C87.3 36.5 87.1 48 89.2 64C90.2 72.1 94.8 79.8 101.5 84.7V98.7C101.5 99.5 101 100.2 100.4 100.4C99.7 100.7 98.9 100.9 97.9 101.3C92.2 103.3 82.6 106.7 75.9 110.3C74.7 110.9 73.4 111.4 72.1 111.7C67.6 112.6 59.1 114.8 52.8 119.2C47.3 123.1 43.3 130.7 41 136.4C39.2 140.7 38.9 146.8 38.6 152.1C38.5 154.5 38.3 156.7 38.1 158.5C38.1 158.6 36.1 172.3 35.1 178.5C34 185.3 33.4 189.9 33.4 196.4C33.4 201 33.2 211.1 33.2 214.4C33.1 222.9 31 228.9 28.8 235.3C26.9 240.6 25 246.2 24 253.5C23 260.9 22.3 267.9 21.7 274.7C20.9 283 20.1 290.9 18.9 297.6C18.7 298.9 18.3 299.8 16.8 301.1C13.2 304.2 9.20005 307.6 6.50005 311.7C5.00005 313.9 3.80005 316.7 2.50005 319.4C1.80005 320.9 1.10005 322.4 0.500046 323.6V323.7V323.8C4.62532e-05 325 -0.699954 326.6 0.300046 328.1C1.20005 329.5 3.00005 329.6 3.60005 329.6H3.70005C6.30005 329.6 8.30005 328.1 9.60005 326.6C9.40005 327.2 9.10005 327.9 8.80005 328.6C7.60005 331.7 5.50005 337.4 4.40005 340.4C4.00005 341.5 3.70005 342.2 3.70005 342.4V342.5V342.6C3.40005 343.8 3.30005 345.6 4.10005 347.1C4.60005 348.1 5.50005 348.7 6.50005 349C6.90005 349.1 7.40005 349.2 7.80005 349.2C8.80005 349.2 10.1 348.9 11.4 347.6C11.3 348 11.3 348.3 11.2 348.5C10.8 352.6 12.8 353.9 14.6 354.3C15 354.4 15.4 354.4 15.8 354.4C18 354.4 19.8 353.1 20.4 350.9C20.4 350.8 20.5 350.5 20.6 350.2C21.1 351.6 22.3 352.7 23.9 353C24.2 353.1 24.4 353.1 24.7 353.1C26.9 353.1 28.9 351.5 29.6 349C29.7 348.5 29.9 348 30 347.4C30.9 349.3 32.6 349.6 33.5 349.7C33.6 349.7 33.7 349.7 33.8 349.7C36.2 349.7 38.1 347.8 38.5 345.2C38.7 344 41.3 328.9 42.6 324C43.1 322 43.6 319 43.8 317.2C44 314.5 44.1 312.1 44 310.1C43.9 307.9 43.7 303.3 44.3 300.7C45.6 295 48.4 288.1 51.4 280.7C55.9 269.6 61.1 257.1 61.6 246.2C61.6 245.7 61.7 245.1 61.7 244.5C62.1 237.1 62.8 221.6 67.4 200.7C69.3 192.1 69.8 185.4 70.1 181.2C70.2 181.5 70.3 181.9 70.3 182.5C70.3 187.6 72.5 196.3 74.3 204C75.5 209 76.7 213.7 76.8 215.8C77.1 220.8 77.2 227.6 77.4 234.1C77.5 237.7 77.6 241 77.7 244.1C78.1 256.7 75.4 272.8 73.8 282.4C73.5 284.3 73.2 285.8 73 287.1C70.7 302.6 67.9 326.4 71.2 353.4C73.9 387.3 79.1 404.7 82.3 415C83.6 419.2 84.5 422.2 84.6 424.4C84.8 427.8 84.8 430.3 84.5 432C84.3 433 84.1 434.5 83.8 436.2C82.7 442.8 81.1 452.7 81 456.9C80.7 471.2 82.9 481.3 85.5 492.9C86.6 497.8 87.7 502.8 88.7 508.6C88.8 509.4 89.3 511 90 513.5C92.1 521.2 97.7 541.5 95 547C92.1 552.9 88.8 556.9 86.1 560.1C82.9 564 80.3 567.1 80.5 571.2C80.6 575 85.3 576.6 99.8 577.7C101.6 577.8 103.4 577.9 105.2 577.9C107 577.9 108.6 578 110.1 578.1H110.5C112.1 578.2 113.8 578.4 115.4 578.4C117.1 578.4 118.4 578.2 119.4 577.8H119.5C120.4 577.4 121.5 577 122.4 576C123.3 577 124.4 577.5 125.3 577.8L125.5 577.9C126.5 578.3 127.8 578.5 129.5 578.5C131.1 578.5 132.8 578.3 134.3 578.2H134.8C136.3 578.1 137.9 578 139.7 578C141.4 578 143.3 577.9 145.1 577.8C159.6 576.7 164.3 575.1 164.4 571.3C164.5 567.2 162 564.1 158.8 560.2C156.1 557 152.8 553 149.9 547.1C147.2 541.6 152.8 521.2 154.9 513.6C155.6 511.2 156 509.6 156.2 508.7C157.2 502.9 158.4 497.9 159.4 493C162 481.4 164.3 471.3 163.9 457C163.8 452.8 162.2 442.9 161.1 436.3C160.8 434.6 160.6 433.2 160.4 432.1C160.1 430.4 160.1 427.8 160.3 424.5C160.4 422.3 161.3 419.3 162.6 415.1C165.7 404.7 170.9 387.4 173.7 353.5C177 326.5 174.3 302.7 171.9 287.2C171.7 286 171.5 284.4 171.1 282.5C169.5 272.9 166.8 256.8 167.2 244.2C167.3 241.1 167.4 237.7 167.5 234.2C167.6 227.6 167.8 220.8 168.1 215.9C168.2 213.9 169.4 209 170.7 203.8C172.6 196.1 174.7 187.4 174.7 182.6C174.7 182.1 174.7 181.7 174.8 181.4C175.1 185.5 175.6 192.2 177.5 200.9C182.1 221.8 182.9 237.3 183.2 244.7C183.2 245.3 183.3 245.9 183.3 246.4C183.9 257.3 189 269.8 193.5 280.9C196.5 288.2 199.4 295.2 200.6 300.9C201.2 303.5 201 308.1 200.9 310.3C200.8 312.3 200.9 314.7 201.1 317.4C201.3 319.3 201.8 322.3 202.3 324.2C203.5 329.1 206.2 344.2 206.4 345.4C206.8 348.1 208.7 349.9 211.1 349.9C211.2 349.9 211.3 349.9 211.4 349.9C212.3 349.8 214 349.5 214.9 347.6C215 348.1 215.2 348.7 215.3 349.2C216 351.6 217.9 353.3 220.2 353.3C220.5 353.3 220.7 353.3 221 353.2C222.6 352.9 223.7 351.8 224.3 350.4C224.4 350.7 224.5 351 224.5 351.1C225.2 353.3 227 354.6 229.1 354.6C229.5 354.6 229.9 354.6 230.3 354.5C232.1 354.1 234.1 352.8 233.7 348.7C233.7 348.5 233.6 348.2 233.5 347.8C234.7 349.1 236.1 349.4 237.1 349.4C237.5 349.4 238 349.3 238.4 349.2C239.4 348.9 240.3 348.3 240.8 347.3C241.6 345.8 241.6 344 241.2 342.8V342.7V342.6C241.1 342.5 240.9 341.7 240.5 340.6C239.4 337.6 237.3 331.9 236.1 328.8C235.8 328.1 235.6 327.4 235.3 326.8C236.6 328.3 238.6 329.8 241.2 329.8H241.3C242 329.8 243.7 329.7 244.6 328.3C245.9 326.7 245.2 325.1 244.7 323.8ZM91.7 63.8C89.7 47.7 89.9 36.4 89.9 36.4C89.9 15.3 105.7 2.70002 121.5 2.30002H121.6C121.7 2.30002 121.7 2.30002 121.8 2.30002C121.9 2.30002 122 2.30002 122.2 2.30002C122.3 2.30002 122.4 2.30002 122.5 2.30002C122.6 2.30002 122.6 2.30002 122.7 2.30002C122.8 2.30002 122.9 2.30002 123 2.30002C123.1 2.30002 123.2 2.30002 123.4 2.30002C123.5 2.30002 123.6 2.30002 123.7 2.30002C123.8 2.30002 123.8 2.30002 123.9 2.30002H124C139.7 2.70002 155.6 15.3 155.6 36.4C155.6 36.4 156.3 47.4 153.8 63.8C152.6 71.9 147.9 78.9 141.3 83.7C139.3 85.1 137.2 86.3 135 87.4C133.2 88.3 131.3 89.4 129.3 90C126.9 90.7 118.5 90.7 116.1 90C113.8 89.4 111.6 88.1 109.6 87C105.8 84.9 102 82.6 99 79.4C96.2 76.4 94.1 72.8 92.8 68.8C92.3 67.1 91.9 65.5 91.7 63.8ZM123.2 543.3C123.2 546 123.2 548.7 122.6 551.8C122 549 122.1 546.2 122.1 543.5C122.1 542 122.1 540.5 122 539C121.9 537.2 121.8 535.6 121.7 534C121.3 528 121 523.2 121 515.8C121 510.1 121.2 505.4 121.5 501.2C121.9 496.8 122.3 490.8 122.7 484.6C123.1 490.8 123.5 496.7 123.9 501.1C124.3 505.4 124.5 510.1 124.5 515.6C124.5 524.5 124.1 529.4 123.7 534.1C123.6 535.7 123.4 537.4 123.3 539.2C123.2 540.5 123.2 541.9 123.2 543.3ZM121.3 402.2C121.9 396.8 122.4 391.2 122.7 385.3C123 391 123.5 396.6 124.1 402C124.1 403.4 124 410.9 124.8 419.3C125.3 424.9 125.1 430.4 124.2 435.7C123.6 439.4 123 443.5 122.7 447.9C122.3 443.5 121.8 439.4 121.2 435.7C120.3 430.6 120.1 425.2 120.6 419.7C121.1 414.3 121.2 408.6 121.2 405.2C121.2 403.9 121.2 402.5 121.3 402.2ZM241.6 327.4C238.2 327.4 236.2 323.7 235.5 322.7C235 322 231.7 316.2 230.4 315.8C230.4 315.8 230.4 315.8 230.3 315.8C229 315.8 233.3 327.3 234.1 329.5C235.7 333.7 239 342.7 239.2 343.3C239.6 344.6 239.3 346.5 238 346.9C237.7 347 237.5 347 237.3 347C236.3 347 235.4 346.3 234.6 345C233.7 343.5 228.9 330.2 227.9 327.6C227.8 327.4 227.6 327.3 227.4 327.3C227.3 327.3 227.3 327.3 227.2 327.3L226.2 327.6C226 327.7 225.8 327.9 225.9 328.2C226.7 330.9 231.4 346.9 231.6 348.8C231.8 350.9 231.4 351.9 230 352.2C229.8 352.2 229.5 352.3 229.3 352.3C228.2 352.3 227.2 351.7 226.8 350.4C226.4 349 221.9 333.1 221 330C220.9 329.8 220.7 329.6 220.4 329.6H220.3L219.2 329.8C218.9 329.9 218.7 330.1 218.8 330.4C219.4 332.9 222 345 222.4 347.9C222.6 349.3 222 350.6 220.7 350.8C220.6 350.8 220.4 350.8 220.3 350.8C219.1 350.8 218.1 349.8 217.6 348.4C215.7 341.8 214 332.2 213.7 330.4C213.7 330.2 213.5 330 213.3 330L212.1 329.9H212C211.7 329.9 211.5 330.2 211.5 330.5C211.7 333.4 213.2 341.3 213.2 344.7C213.2 346.6 212.6 347.4 211.4 347.5H211.3C210.1 347.5 209.1 346.5 208.9 345C208.7 343.7 206.1 328.6 204.8 323.5C204.4 321.8 203.8 318.9 203.7 317.1C203.5 314.1 203.4 312 203.5 310.3C203.6 307.6 203.8 303.1 203.2 300.3C199.9 285.6 186.8 263.7 185.9 246.2C185.5 239.2 185.1 223.1 180 200.4C177.4 188.8 177.4 180.9 177 177.6C177 177.5 177.1 177.4 177.1 177.3C177.9 174.7 178 172.5 178.1 171.1C178.2 169.6 178.3 168.8 178.3 168.8C178.4 168.5 178.1 168.1 177.8 168C177.4 167.9 177.1 168.1 177 168.5C177 168.5 176.8 169.4 176.5 170.8C176.2 172.3 176 174.4 175.2 176.6C174.8 177.8 174.3 178.9 173.4 179.9C172.6 181 171.5 181.9 170.2 182.6C168.9 183.3 167.5 183.9 165.9 184.3C165.1 184.5 164.3 184.7 163.6 184.8L162.4 185C162 185.1 161.6 185.1 161.2 185.2C157.9 185.6 154.6 185.7 151.4 185.6C149.8 185.6 148.3 185.5 146.9 185.4C145.5 185.3 144.1 185.1 142.9 184.9C140.4 184.5 138.4 184 137.1 183.5C136.4 183.3 135.9 183 135.6 182.9C135.2 182.7 135.1 182.6 135.1 182.6C134.8 182.5 134.5 182.5 134.3 182.8C134.1 183.1 134.2 183.4 134.5 183.6C134.5 183.6 134.7 183.7 135 183.9C135.4 184.1 135.9 184.5 136.6 184.8C138 185.5 140.1 186.2 142.6 186.8C143.9 187.1 145.3 187.3 146.7 187.5C148.2 187.7 149.7 187.8 151.4 187.9C154.6 188 158.1 187.9 161.6 187.5C162 187.4 162.4 187.4 162.9 187.3L164.2 187.1C165.1 186.9 165.9 186.7 166.8 186.5C168.5 186 170.1 185.3 171.6 184.4C172 184.2 172.3 183.9 172.6 183.7C172.1 192.2 166.4 210.6 166.1 215.7C165.7 223.4 165.5 235.2 165.3 244.1C164.8 259.5 168.8 280 169.9 287.5C172.8 306.8 174.6 328.8 171.7 353.2C167.8 401.4 158.8 416.1 158.3 424.3C158.1 427.4 158.1 430.3 158.4 432.4C159.2 437.4 161.8 451.9 161.9 457C162.3 477 157.7 488.6 154.1 508.2C153.4 511.9 144.2 540.2 148.1 548C154.6 560.9 162.6 564.9 162.4 571C162.4 571.8 161.6 572.4 160.3 572.9C159.5 573.2 158.6 572.7 158.4 571.9C158.3 571.3 158.1 570.8 157.7 570.2C157.4 569.7 156.8 568.9 156.3 569.1C155.8 569.3 156.1 570.2 156.2 570.5C156.4 571.2 156.4 572.1 156.4 572.9C156.4 573.6 155.9 574.1 155.2 574.2C154.8 574.3 154.4 574.3 154 574.4C153 574.5 152.1 573.9 151.9 572.9C151.8 572.3 151.6 571.6 151.2 571C150.9 570.5 150.3 569.7 149.8 569.9C149.3 570.1 149.6 571 149.7 571.3C149.9 572 149.9 572.9 149.9 573.7C149.9 574.4 149.3 575 148.6 575C148.2 575 147.8 575.1 147.3 575.1C146.3 575.2 145.4 574.5 145.3 573.5C145.2 572.6 144.9 571.7 144.4 570.8C144 570.2 143.3 569.3 142.7 569.5C142.3 569.7 142.3 570.2 142.6 571.1C142.8 571.7 142.9 572.5 142.9 573.2C142.9 574.4 141.9 575.5 140.7 575.5C140.1 575.5 139.5 575.5 138.9 575.5C137.7 575.5 136.8 574.7 136.6 573.5C136.4 572.1 136 571 135.8 569.6C135.5 567.6 133.2 567.6 132.9 569.6C132.8 570.4 133 570.8 133.3 571.6C134 573.7 132.4 576 130.2 576C130.1 576 130 576 130 576C128.8 576 127.7 575.9 126.9 575.6C125.4 575 124 574.5 123.7 571.6C123.6 570.1 123.7 568.4 123.7 568.4C123.8 565.7 124.2 556.4 124.9 553.1C126.1 547.6 125.6 543.3 125.9 539.1C126.3 532.1 127.1 527.5 127.1 515.3C127.1 510 126.9 504.7 126.4 499.4C125.5 488.7 124.3 469.2 124.7 459.7C125.1 448.6 126 441.2 126.9 436.2C127.9 430.6 128.1 424.8 127.6 419.1C126.9 411.9 126.8 404.8 126.9 401.7C123.2 371.5 125.4 333.8 125.1 306.1C125.3 306.1 125.5 306.1 125.7 306.1C134 305.7 135.3 298.9 135.4 298.8C135.5 298.5 135.3 298.2 135 298.2C134.7 298.1 134.4 298.2 134.3 298.5C132.5 302.5 127.4 304 125.1 304H121.2C118.7 304 113.6 302.2 112 298.5C111.9 298.2 111.6 298.1 111.3 298.2C111 298.3 110.8 298.6 110.9 298.8C110.9 298.9 112.2 305.7 120.6 306.1C120.8 306.1 121 306.1 121.2 306.1C120.9 333.7 123 371.7 119.4 401.7C119.2 403 119.3 411.3 118.7 419.3C118.2 424.8 118.4 430.4 119.4 435.9C120.3 440.9 121.2 448.4 121.6 459.7C121.9 469.1 120.8 488.5 119.9 499.2C119.5 503.7 119.2 511.2 119.2 515.7C119.2 525.1 119.7 530.4 120.2 538.9C120.5 543.3 119.9 547.7 121 552.6C121.9 556.4 122.1 565.4 122.3 567.6C122.3 569.8 122.6 571.5 122 573.6C121.4 574.7 120.4 575.1 119.4 575.6C118.6 575.9 117.5 576 116.2 576C116.1 576 116 576 115.9 576C113.6 576 112 573.7 112.8 571.6C113.1 570.8 113.3 570.5 113.2 569.6C112.9 567.6 110.6 567.6 110.3 569.6C110.1 570.9 109.7 572 109.5 573.5C109.4 574.7 108.4 575.5 107.2 575.5C106.6 575.5 106 575.5 105.4 575.5C104.2 575.5 103.2 574.4 103.2 573.2C103.2 572.5 103.3 571.7 103.5 571.1C103.8 570.2 103.8 569.6 103.4 569.5C102.8 569.2 102.1 570.2 101.7 570.8C101.1 571.7 100.9 572.6 100.8 573.5C100.7 574.5 99.8 575.2 98.8 575.1C98.4 575.1 97.9 575 97.5 575C96.8 574.9 96.3 574.4 96.2 573.7C96.2 573 96.2 572 96.4 571.3C96.5 571 96.8 570.1 96.3 569.9C95.8 569.7 95.2 570.5 94.9 571C94.5 571.6 94.3 572.2 94.2 572.9C94 573.9 93.1 574.6 92.1 574.4C91.7 574.3 91.3 574.3 90.9 574.2C90.2 574.1 89.7 573.5 89.7 572.9C89.7 572.2 89.7 571.2 89.9 570.5C90 570.2 90.3 569.3 89.8 569.1C89.3 568.9 88.7 569.7 88.4 570.2C88 570.7 87.8 571.3 87.7 571.9C87.5 572.8 86.6 573.3 85.8 572.9C84.5 572.4 83.7 571.8 83.7 571C83.5 564.9 91.5 560.9 98 548C101.9 540.2 92.6 511.9 92 508.2C88.5 488.6 83.8 476.9 84.2 457C84.3 451.9 86.9 437.4 87.7 432.4C88 430.3 88 427.4 87.8 424.3C87.3 416.1 78.3 401.4 74.4 353.2C71.4 328.7 73.3 306.7 76.2 287.5C77.3 280 81.3 259.5 80.8 244.1C80.5 235.2 80.4 223.3 80 215.7C79.7 210.6 74 192.5 73.5 183.7C73.8 184 74.2 184.2 74.6 184.4C76.1 185.3 77.7 186 79.4 186.5C80.2 186.7 81.1 186.9 82 187.1L83.3 187.3C83.8 187.4 84.2 187.4 84.6 187.5C88.1 187.9 91.5 188 94.8 187.9C96.4 187.8 98 187.7 99.5 187.5C101 187.3 102.4 187.1 103.6 186.8C106.1 186.2 108.2 185.5 109.6 184.8C110.3 184.5 110.8 184.1 111.2 183.9C111.5 183.7 111.7 183.6 111.7 183.6C111.9 183.4 112 183.1 111.9 182.8C111.8 182.5 111.4 182.4 111.1 182.5C111.1 182.5 110.9 182.6 110.6 182.8C110.3 183 109.8 183.2 109.1 183.4C107.8 183.9 105.8 184.4 103.3 184.8C102.1 185 100.7 185.2 99.3 185.3C97.9 185.4 96.4 185.5 94.8 185.5C91.7 185.6 88.3 185.5 85 185.1C84.6 185 84.2 185 83.8 184.9L82.6 184.7C81.8 184.5 81 184.4 80.3 184.2C78.8 183.8 77.3 183.2 76 182.5C74.7 181.8 73.6 180.8 72.8 179.8C72 178.7 71.4 177.6 71 176.5C70.2 174.2 70 172.1 69.7 170.7C69.4 169.2 69.2 168.4 69.2 168.4C69.1 168.1 68.8 167.8 68.4 167.9C68 168 67.8 168.3 67.8 168.7C67.8 168.7 67.9 169.5 68 171C68.2 172.5 68.2 174.6 69 177.2C69 177.3 69.1 177.4 69.1 177.5C68.7 180.8 68.7 188.7 66.1 200.3C61 223.1 60.6 239.1 60.2 246.1C59.3 263.6 46.1 285.4 42.9 300.2C42.3 303 42.5 307.4 42.6 310.2C42.7 311.9 42.7 314 42.4 317C42.3 318.8 41.7 321.7 41.3 323.4C40 328.4 37.4 343.6 37.2 344.9C37 346.4 36 347.4 34.8 347.4H34.7C33.4 347.3 32.8 346.5 32.9 344.6C32.9 341.2 34.4 333.3 34.6 330.4C34.6 330.1 34.4 329.8 34.1 329.8H34L32.8 329.9C32.6 329.9 32.4 330.1 32.4 330.3C32.1 332.1 30.4 341.7 28.5 348.3C28.1 349.7 27 350.7 25.8 350.7C25.7 350.7 25.5 350.7 25.4 350.7C24.1 350.5 23.5 349.2 23.7 347.8C24.1 344.9 26.8 332.8 27.3 330.3C27.4 330 27.2 329.7 26.9 329.7L25.8 329.5H25.7C25.4 329.5 25.2 329.7 25.1 329.9C24.2 332.9 19.7 348.9 19.3 350.3C18.9 351.6 18 352.2 16.8 352.2C16.6 352.2 16.4 352.2 16.1 352.1C14.7 351.8 14.3 350.8 14.5 348.7C14.7 346.8 19.3 330.8 20.2 328.1C20.3 327.9 20.1 327.6 19.9 327.5L18.9 327.2C18.8 327.2 18.8 327.2 18.7 327.2C18.5 327.2 18.3 327.3 18.2 327.5C17.2 330.1 12.3 343.4 11.5 344.9C10.7 346.3 9.80005 346.9 8.80005 346.9C8.60005 346.9 8.30005 346.9 8.10005 346.8C6.70005 346.4 6.50005 344.5 6.90005 343.2C7.10005 342.7 10.4 333.7 12 329.4C12.8 327.2 17.1 315.7 15.8 315.7C15.8 315.7 15.8 315.7 15.7 315.7C14.4 316 11.1 321.9 10.6 322.6C9.90005 323.6 7.90005 327.3 4.60005 327.3H4.50005C2.60005 327.3 2.60005 326.6 3.50005 324.7C5.30005 321.4 7.10005 316.3 9.30005 313C11.8 309.3 15.4 306.1 19.2 302.8C21.1 301.2 21.7 299.8 22 298C24.2 285.9 24.8 270.7 27.1 253.8C29.2 237.8 36.1 230.5 36.3 214.4C36.4 210 36.5 200.8 36.5 196.4C36.5 189.9 37.1 185.3 38.2 178.9C39.2 172.6 41.2 158.8 41.2 158.8C42 152.7 41.6 143 43.9 137.2C46.2 131.6 50 124.5 54.9 121C59.8 117.5 66.3 115.5 70.7 114.4C70.7 114.4 70.7 114.4 70.8 114.4C70.8 114.4 71 114.4 71.5 114.4C71.9 114.4 72.5 114.4 73.3 114.3C74.8 114.3 76.8 114.3 78.8 114.3C80.8 114.3 82.8 114.3 84.3 114.2C85.8 114.1 86.8 114 86.8 114C87.2 114 87.6 113.6 87.6 113.1C87.6 112.6 87.2 112.3 86.7 112.3C86.7 112.3 82.7 112.5 78.8 112.3C78.4 112.3 78.1 112.3 77.7 112.3C77.7 112.3 77.8 112.3 77.8 112.2C85.4 108.1 97.2 104.2 102 102.5C103.6 101.9 104.6 100.4 104.6 98.6C104.6 95.5 104.6 89.6 104.6 86.2C108.2 88.5 113.9 91.4 116 92C117.4 92.4 120.3 92.6 123.2 92.6C126.1 92.6 129 92.4 130.4 92C132.5 91.4 138.3 88.5 141.8 86.2C141.8 89.7 141.8 95.5 141.8 98.6C141.8 100.3 142.9 101.9 144.4 102.5C149.2 104.2 160.9 108.1 168.6 112.2C168.6 112.2 168.7 112.2 168.7 112.3C168.3 112.3 168 112.3 167.6 112.3C163.6 112.5 159.7 112.3 159.7 112.3C159.2 112.3 158.9 112.6 158.8 113.1C158.8 113.6 159.1 114 159.6 114C159.6 114 160.6 114.1 162.1 114.2C163.6 114.3 165.6 114.3 167.6 114.3C169.6 114.3 171.6 114.3 173.1 114.3C173.8 114.3 174.4 114.3 174.9 114.4C175.3 114.4 175.6 114.4 175.6 114.4C180.1 115.5 186.6 117.5 191.5 121C196.5 124.5 200.2 131.7 202.5 137.2C204.9 143 204.5 152.7 205.2 158.8C205.2 158.8 207.1 172.6 208.2 178.9C209.2 185.3 209.9 189.9 209.9 196.4C209.9 200.8 210.1 210 210.1 214.4C210.3 230.4 217.2 237.7 219.3 253.8C221.5 270.6 222.2 285.9 224.4 298C224.7 299.8 225.4 301.2 227.2 302.8C231 306.1 234.6 309.2 237.1 313C239.3 316.4 241.2 321.4 242.9 324.7C243.4 326.8 243.5 327.4 241.6 327.4Z" fill="#8AA0A8"/>
<path opacity="0.4" d="M108.9 421.4C107.1 422.9 101.3 423.3 97.1001 420.7C95.5001 419.7 94.1001 419.8 95.4001 420.9C98.6001 423.7 100.3 425.6 104.4 425.6C106.5 425.4 108.4 423 109.4 421.5C110 420.8 109.7 420.8 108.9 421.4Z" fill="#8AA0A8"/>
<path opacity="0.4" d="M29.5 305.8C29.2 305.8 29 306 28.9 306.2C27.2 312.2 22.7 316.1 19.5 318.5C19.3 318.7 19.2 319 19.4 319.3C19.5 319.5 19.7 319.6 19.9 319.6C20 319.6 20.1 319.6 20.2 319.5C20.4 319.4 24.7 317.1 27.5 313.8C30.7 310 30.1 306.4 30.1 306.2C30 306 29.8 305.8 29.5 305.8Z" fill="#8AA0A8"/>
<path opacity="0.4" d="M141 425.7C145.1 425.7 146.7 423.8 150 421C151.4 419.8 150 419.7 148.3 420.8C144.2 423.4 138.4 422.9 136.5 421.5C135.7 420.9 135.5 420.9 135.9 421.7C137 423.1 138.9 425.5 141 425.7Z" fill="#8AA0A8"/>
<path opacity="0.4" d="M216.5 306.2C216.4 305.9 216.2 305.8 215.9 305.8C215.6 305.8 215.4 306 215.4 306.3C215.4 306.5 214.8 310.1 218 313.9C220.8 317.2 225.1 319.5 225.3 319.6C225.4 319.6 225.5 319.7 225.6 319.7C225.8 319.7 226 319.6 226.1 319.4C226.3 319.1 226.2 318.8 226 318.6C222.7 316.1 218.2 312.2 216.5 306.2Z" fill="#8AA0A8"/>
<path d="M122.7 247.3C120.8 247.3 119.3 248.2 119.3 249.3C119.3 250.4 120.8 251.3 122.7 251.3C124.6 251.3 126.1 250.4 126.1 249.3C126.2 248.2 124.6 247.3 122.7 247.3Z" fill="#8AA0A8"/>
</svg>
