<svg width="45" height="41" viewBox="0 0 45 41" fill="none" xmlns="http://www.w3.org/2000/svg">
<path d="M16.7329 0L37.2457 35.583L36.3134 37.2005C35.0074 39.4658 32.594 40.8612 29.9822 40.8612H14.8677C12.256 40.8612 9.84247 39.4658 8.53658 37.2005L8.1379 36.5089L13.9366 26.4504H23.498L18.4329 17.6647H11.3781C9.8941 17.6647 8.58228 18.403 7.78856 19.5326C7.68657 19.6698 7.59126 19.8141 7.50379 19.9659L3.0523 27.6874L0.979414 24.0914C-0.326471 21.8262 -0.326471 19.0351 0.979414 16.7698L8.53658 3.66071C9.84247 1.39546 12.256 4.17676e-06 14.8677 0H16.7329ZM29.9822 0C32.594 5.84569e-06 35.0074 1.39546 36.3134 3.66071L43.8704 16.7698C45.1764 19.0351 45.1764 21.8262 43.8704 24.0914L42.3314 26.7613L26.904 0H29.9822Z" fill="white"/>
</svg>
