<svg width="28" height="18" viewBox="0 0 28 18" fill="none" xmlns="http://www.w3.org/2000/svg">
<rect y="3" width="27.2432" height="2" rx="1" fill="white"/>
<rect y="13" width="27.2432" height="2" rx="1" fill="white"/>
<path d="M9.72925 0.5C11.5897 0.5 13.1218 2.054 13.1218 4C13.1218 5.946 11.5897 7.5 9.72925 7.5C7.86891 7.49984 6.33765 5.9459 6.33765 4C6.33765 2.0541 7.86891 0.500162 9.72925 0.5Z" fill="#282828" stroke="white"/>
<path d="M17.5132 10.5C19.3736 10.5 20.9058 12.054 20.9058 14C20.9058 15.946 19.3736 17.5 17.5132 17.5C15.6529 17.4998 14.1216 15.9459 14.1216 14C14.1216 12.0541 15.6528 10.5002 17.5132 10.5Z" fill="#282828" stroke="white"/>
</svg>
